# xmcd CD database file
#
# Track frame offsets:
#	150
#	12179
#	25384
#	41979
#	58579
#	71704
#	84829
#	97304
#	114729
#	133154
#	151004
#	164841
#	184766
#	200116
#	211366
#	227579
#	239429
#
# Disc length: 3413 seconds
#
# Revision: 0
# Processed by: cddbd v1.5.2PL0 Copyright (c) Steve Scherf et al.
# Submitted via: Feurio! 1.68 - http://www.feurio.com
#
DISCID=f80d5311
DTITLE=Various Artist - Stand By Your Man - The Greatest Country Love Songs - CD 1
DYEAR=1900
DGENRE=Country
TTITLE0=Tammy Wynette - Stand By Your Man (Album Version)
TTITLE1=Charlie Rich - Behind Closed Doors (Album Version)
TTITLE2=Dolly Parton - Change (Album Version)
TTITLE3=Mary MacGregor - Torn Between Two Lovers (Album Version)
TTITLE4=David Houston  - Almost Persuaded
TTITLE5=Mickey Gilley  - True Love Ways (Album Version)
TTITLE6=Charly McClain - The Very Best Is You
TTITLE7=Collin Raye - Love Me (Album Version)
TTITLE8=Patty Loveless  - You Don't Even Know Who I Am (Album Version)
TTITLE9=Johnny Duncan - Slow Dancing 
TTITLE10=T. Graham Brown - Come As You Were (Album Version)
TTITLE11=Randy Meisner - Anyway Bye Bye (Album Version)
TTITLE12=T.G. Sheppard - You're My First Lady
TTITLE13=Sandy Posey - Why Don't We Go Somewhere And Love (Album Version)
TTITLE14=Willie Nelson  - Over The Rainbow (Album Version)
TTITLE15=Lynn Anderson  - You're My Man (Single Version)
TTITLE16=J. D. Souther  - The Last In Love (Album Version)
EXTD=
EXTT0=
EXTT1=
EXTT2=
EXTT3=
EXTT4=
EXTT5=
EXTT6=
EXTT7=
EXTT8=
EXTT9=
EXTT10=
EXTT11=
EXTT12=
EXTT13=
EXTT14=
EXTT15=
EXTT16=
PLAYORDER=
